<svg fill="none" height="24" viewBox="0 0 24 24" width="24" xmlns="http://www.w3.org/2000/svg"><path d="m17.6601 22.6701c-.53 0-1.21-.17-2.06-.67l-2.99-1.77c-.31-.18-.91-.18-1.21 0l-2.99998 1.77c-1.77 1.05-2.81.63-3.28.29-.46-.34-1.18-1.21-.71-3.21l.71-3.07c.08-.32-.08-.87-.32-1.11l-2.48-2.48c-1.24-1.24-1.14-2.3-.97-2.82003.17-.52.71-1.44 2.43-1.73l3.19-.53c.3-.05.73-.37.86-.64l1.77-3.53c.79998-1.61 1.84998-1.85 2.39998-1.85s1.6.24 2.4 1.85l1.76 3.52c.14.27.57.59.87.64l3.19.53c1.73.29 2.27 1.21 2.43 1.73.16.52003.26 1.58003-.97 2.82003l-2.48 2.49c-.24.24-.39.78-.32 1.11l.71 3.07c.46 2-.25 2.87-.71 3.21-.25.18-.65.38-1.22.38zm-5.66-4.08c.49 0 .98.12 1.37.35l2.99 1.77c.87.52 1.42.52 1.63.37s.36-.68.14-1.66l-.71-3.07c-.19-.83.12-1.9.72-2.51l2.48-2.48c.49-.49.71-.97.61-1.3-.11-.33003-.57-.60003-1.25-.71003l-3.19-.53c-.77-.13-1.61-.75-1.96-1.45l-1.76-3.52c-.32-.64-.72-1.02-1.07-1.02s-.75.38-1.06 1.02l-1.76998 3.52c-.35.7-1.19 1.32-1.96 1.45l-3.18.53c-.68.11-1.14.38-1.25.71003-.11.33.12.82.61 1.3l2.48 2.48c.6.6.91 1.68.72 2.51l-.71 3.07c-.23.99-.07 1.51.14 1.66s.75.14 1.63-.37l2.98998-1.77c.38-.23.87-.35 1.36-.35z" fill="#292d32"/></svg>